<svg xmlns="http://www.w3.org/2000/svg" viewBox="0 0 64 64" role="img" aria-label="世界杯">
  <defs>
    <linearGradient id="wcBg" x1="0" y1="0" x2="0" y2="1">
      <stop offset="0" stop-color="#243a66"/>
      <stop offset="1" stop-color="#0d1730"/>
    </linearGradient>
    <linearGradient id="wcGold" x1="0" y1="0" x2="0" y2="1">
      <stop offset="0" stop-color="#ffe7a3"/>
      <stop offset="0.5" stop-color="#e9b64c"/>
      <stop offset="1" stop-color="#c5851d"/>
    </linearGradient>
  </defs>
  <rect x="2" y="2" width="60" height="60" rx="15" fill="url(#wcBg)"/>
  <rect x="3" y="3" width="58" height="58" rx="13.5" fill="none" stroke="#e9b64c" stroke-opacity="0.55" stroke-width="1.4"/>
  <g fill="url(#wcGold)">
    <path d="M18 13 H46 V18 C46 31 40 38.5 32 38.5 C24 38.5 18 31 18 18 Z"/>
    <path d="M18 15 C10 15 8.5 23 12.5 28.5 C14.3 30.8 16.8 31.4 19.5 31.4 L19.5 28 C17.2 27.6 14.8 26 14.8 23.2 C14.8 20.4 16.2 18.6 18.6 18.4 Z"/>
    <path d="M46 15 C54 15 55.5 23 51.5 28.5 C49.7 30.8 47.2 31.4 44.5 31.4 L44.5 28 C46.8 27.6 49.2 26 49.2 23.2 C49.2 20.4 47.8 18.6 45.4 18.4 Z"/>
    <rect x="29" y="38.5" width="6" height="6"/>
    <path d="M23 44.5 H41 L43 48.5 H21 Z"/>
    <rect x="20" y="48.5" width="24" height="5" rx="2"/>
  </g>
  <path d="M21.5 14.5 H28.5 C28.5 23 26 29 22.5 31.5 C19.5 27 19.2 20 21.5 14.5 Z" fill="#ffffff" opacity="0.16"/>
  <text x="32" y="59.5" font-family="Arial, sans-serif" font-size="7.5" font-weight="700" fill="#e9b64c" text-anchor="middle" letter-spacing="0.5">2026</text>
</svg>
