<svg xmlns="http://www.w3.org/2000/svg" viewBox="0 0 64 64" role="img" aria-label="世界杯">
  <rect x="2" y="2" width="60" height="60" rx="14" fill="#15213b"/>
  <g fill="#e9b949">
    <path d="M18 14 H46 V20 C46 31 40 37 32 37 C24 37 18 31 18 20 Z"/>
    <path d="M18 17 C9 17 8 23 11 28 C13 31 16 32 19 32 L19 28 C16 28 14 26 14 23 C14 20 16 19 19 19 Z"/>
    <path d="M46 17 C55 17 56 23 53 28 C51 31 48 32 45 32 L45 28 C48 28 50 26 50 23 C50 20 48 19 45 19 Z"/>
    <rect x="29" y="37" width="6" height="8"/>
    <rect x="22" y="45" width="20" height="3" rx="1"/>
    <rect x="19" y="48" width="26" height="5" rx="2"/>
  </g>
</svg>
